<svg width="50" height="50" viewBox="0 0 50 50" fill="none" xmlns="http://www.w3.org/2000/svg">
<g clip-path="url(#clip0_925_12)">
<path d="M39.5833 4.16797C40.6884 4.16797 41.7482 4.60696 42.5296 5.38836C43.311 6.16976 43.75 7.22957 43.75 8.33464V33.3346C43.75 34.4397 43.311 35.4995 42.5296 36.2809C41.7482 37.0623 40.6884 37.5013 39.5833 37.5013H35.4167V41.668C35.4167 42.773 34.9777 43.8328 34.1963 44.6142C33.4149 45.3957 32.3551 45.8346 31.25 45.8346H10.4167C9.3116 45.8346 8.25179 45.3957 7.47039 44.6142C6.68899 43.8328 6.25 42.773 6.25 41.668V16.668C6.25 15.5629 6.68899 14.5031 7.47039 13.7217C8.25179 12.9403 9.3116 12.5013 10.4167 12.5013H14.5833V8.33464C14.5833 7.22957 15.0223 6.16976 15.8037 5.38836C16.5851 4.60696 17.6449 4.16797 18.75 4.16797H39.5833ZM20.8333 31.2513H16.6667C16.1357 31.2519 15.6249 31.4552 15.2388 31.8197C14.8527 32.1843 14.6203 32.6825 14.5892 33.2125C14.5581 33.7426 14.7306 34.2646 15.0714 34.6718C15.4122 35.079 15.8956 35.3407 16.4229 35.4034L16.6667 35.418H20.8333C21.3643 35.4174 21.8751 35.2141 22.2612 34.8495C22.6473 34.485 22.8797 33.9868 22.9108 33.4567C22.9419 32.9266 22.7694 32.4047 22.4286 31.9975C22.0878 31.5903 21.6044 31.3286 21.0771 31.2659L20.8333 31.2513ZM39.5833 8.33464H18.75V12.5013H31.25C32.3551 12.5013 33.4149 12.9403 34.1963 13.7217C34.9777 14.5031 35.4167 15.5629 35.4167 16.668V33.3346H39.5833V8.33464ZM25 22.918H16.6667C16.1141 22.918 15.5842 23.1375 15.1935 23.5282C14.8028 23.9189 14.5833 24.4488 14.5833 25.0013C14.5833 25.5538 14.8028 26.0837 15.1935 26.4744C15.5842 26.8651 16.1141 27.0846 16.6667 27.0846H25C25.5525 27.0846 26.0824 26.8651 26.4731 26.4744C26.8638 26.0837 27.0833 25.5538 27.0833 25.0013C27.0833 24.4488 26.8638 23.9189 26.4731 23.5282C26.0824 23.1375 25.5525 22.918 25 22.918Z" fill="#F8F8F8"/>
</g>
<defs>
<clipPath id="clip0_925_12">
<rect width="50" height="50" fill="white"/>
</clipPath>
</defs>
</svg>
